<svg id="banner" xmlns="http://www.w3.org/2000/svg" width="640" height="320" viewBox="0 0 640 320"><defs><style>.cls-1{fill:#2b316f;}.cls-2,.cls-3,.cls-4,.cls-5,.cls-6{fill:none;}.cls-2{stroke:#24b5a5;stroke-width:6.06px;}.cls-2,.cls-3{stroke-miterlimit:22.93;}.cls-3{stroke:#2b316f;stroke-width:10.51px;}.cls-4{stroke:#005bbd;stroke-width:9.09px;}.cls-4,.cls-6{stroke-miterlimit:22.92;}.cls-5{stroke:#d8006a;stroke-miterlimit:22.93;stroke-width:8.69px;}.cls-6{stroke:#e8cc47;stroke-width:6.06px;}.cls-7{fill:#ccc;fill-rule:evenodd;}</style></defs><g id="Chinese_Name" data-name="Chinese Name"><path class="cls-1" d="M130.85,220.91v4.18H95.76v9.6c0,7.92-.67,19.63-5,27.36a16.82,16.82,0,0,0-3.94-2.26c4.13-7.29,4.47-17.71,4.47-25.1V220.91Zm-23.66,30a73.85,73.85,0,0,1-8.36,10.27,37.94,37.94,0,0,0-3.84-2.5,45.45,45.45,0,0,0,7.92-9.21Zm8.49-24.77c-.67,1.15-1.34,2.3-2,3.31h13.58v18.05H115.49v10.89c0,2.21-.38,3.36-2,4s-4,.62-7.58.62a17.48,17.48,0,0,0-1.35-4c2.5,0,4.95,0,5.62,0s1-.24,1-.81v-10.8H99.6V229.41h9a31.64,31.64,0,0,0,1.68-4ZM104,236.75h18.57v-3.84H104Zm0,7.2h18.57V240H104Zm18.38,5.48c2.79,3,6.58,7.15,8.55,9.64l-3.89,2.31a116.55,116.55,0,0,0-8.26-10Z"/><path class="cls-1" d="M180.48,264.79h-2.11v-48h2.11Z"/><path class="cls-1" d="M258.29,226H232.56v-4.46h30.67l1-.25,3.46,2.65a72.87,72.87,0,0,1-15.65,11.23v4.46H271.3v4.56H252.05v13.2c0,2.79-.67,4.13-2.74,4.81s-5.23.86-9.74.81a19.37,19.37,0,0,0-2-4.66c3.7.15,7.3.15,8.35.1s1.35-.29,1.35-1.15V244.19H227.76v-4.56H247.3v-6.86A60.64,60.64,0,0,0,258.29,226Z"/><path class="cls-1" d="M320.54,264.79h-2.11v-48h2.11Z"/><path class="cls-1" d="M397.63,219.23a19,19,0,0,1-1.2,2.64h14.45v3.65h-8.26a22.75,22.75,0,0,1,2,2.69l-3,1.34h4.65v18.2h-5.76v3.64h10.66v3.7H400.51V263h-4.65v-7.87H383.81c-1.3,3-4.56,5.9-12.2,8a16.64,16.64,0,0,0-2.88-3.36c5.48-1.25,8.36-2.93,9.8-4.66H368.06v-3.7H380v-3.64h-6.24v-18.2h5.08a24.91,24.91,0,0,0-2.2-4h-1.78a31.76,31.76,0,0,1-4.27,5,25.91,25.91,0,0,0-3.7-2.54,25.46,25.46,0,0,0,7.25-9.75l4.27,1.16c-.38.81-.81,1.67-1.25,2.49h11.72l-.05,3.65h-7.49a14.8,14.8,0,0,1,1.58,3l-3,1.05H390a28,28,0,0,0-3.51-1.87,15.76,15.76,0,0,0,2.31-2.16,22.81,22.81,0,0,0,4.51-7.3Zm-19.3,15.46h23.19v-2.26H378.33Zm0,5.09h23.19v-2.36H378.33Zm0,5.13h23.19v-2.4H378.33Zm17.53,2.84H384.53v3.64h11.33Zm4.65-18.2a25.25,25.25,0,0,0-3-4h-3.27a25.4,25.4,0,0,1-3.41,4Z"/><path class="cls-1" d="M460.61,264.79h-2.12v-48h2.12Z"/><path class="cls-1" d="M538.32,219.23a31.88,31.88,0,0,1-1.25,3.31H551v3.36h-7.78a20.61,20.61,0,0,1,2.07,3.32l-3.79,1.58a28.77,28.77,0,0,0-3.08-4.9h-3.07a26.24,26.24,0,0,1-3.46,4.66,20.07,20.07,0,0,0-2.16-1.54l-.43,2.26h18.29v3.41H528.52L528,236.9h17.14v3.26h-18.2l-.86,2.3h25.06v3.46H524.44c-.57,1.11-1.2,2.21-1.82,3.22h14.45v-2.55h4.46v2.55h6.72v3.5h-6.72v6c0,2.07-.33,3.12-1.77,3.75s-3.36.67-6,.67a18.18,18.18,0,0,0-1.44-3.94,39,39,0,0,0,4.08.05c.53,0,.72-.14.72-.62v-5.91H526.41a32.73,32.73,0,0,1,5,5.19L528,260.56a31.93,31.93,0,0,0-5.09-5.85l2.83-2.07h-4.56v-1.39a33.08,33.08,0,0,1-10.22,9.07,29.56,29.56,0,0,0-3.36-3.36,28.51,28.51,0,0,0,11.9-11H508v-3.46h13.3l1-2.3H513.4V236.9h10l.57-2.21h-13.1v-2.88a32.06,32.06,0,0,0-3.65-1.92A28.54,28.54,0,0,0,515,218.22l4.27,1.06c-.43,1.1-.91,2.21-1.44,3.26h11.52v3.36h-6.91a27.83,27.83,0,0,1,1.39,3.08l-4,1.24a27.52,27.52,0,0,0-2-4.32H516a42,42,0,0,1-4.08,5.38h12.81l.58-3.12,3.84.48-1-.58a22.39,22.39,0,0,0,5.86-9.84Z"/></g><path class="cls-1" d="M252,67.4h9.79l23.67,66h-9.32l-6.65-20.16H244l-6.75,20.16h-8.84Zm15.3,39.23L264,96.46c-2.57-7.47-4.76-14.67-7-22.32h-.38c-2.19,7.74-4.47,14.85-6.94,22.32l-3.42,10.17Z"/><path class="cls-1" d="M295.47,67.4H316.1c14.07,0,23.95,4.5,23.95,16.1,0,6.57-3.61,12.33-10.17,14.31v.45c8.27,1.53,14.17,6.75,14.17,15.75,0,13-10.84,19.35-26.43,19.35H295.47Zm19.11,28c12,0,16.82-4,16.82-10.8C331.4,76.84,325.89,74,315,74H304.22V95.38Zm1.8,31.32c12,0,19-4,19-13,0-8.19-6.75-11.88-19-11.88H304.22V126.7Z"/><path class="cls-1" d="M372.28,67.4h9.79l23.67,66h-9.31l-6.66-20.16H364.29l-6.75,20.16H348.7Zm15.3,39.23-3.32-10.17c-2.57-7.47-4.76-14.67-7-22.32h-.38c-2.18,7.74-4.46,14.85-6.94,22.32l-3.42,10.17Z"/><path class="cls-1" d="M410.59,100.42c0-21.33,13.21-34.19,30.9-34.19a26.31,26.31,0,0,1,19.1,8.09l-4.75,5.4a19.57,19.57,0,0,0-14.26-6.21c-13.12,0-22,10.17-22,26.64,0,16.65,8.37,27.09,21.67,27.09,6.66,0,11.7-2.79,16.17-7.47l4.84,5.31a27.54,27.54,0,0,1-21.38,9.45C423.52,134.53,410.59,121.84,410.59,100.42Z"/><path class="cls-1" d="M473.62,106.18V67.4h8.74v39c0,15.84,7.13,20.88,16.26,20.88s16.54-5,16.54-20.88v-39h8.46v38.78c0,21.15-10.84,28.35-25,28.35S473.62,127.33,473.62,106.18Z"/><path class="cls-1" d="M536.36,124.81l5.22-5.76a27.71,27.71,0,0,0,19.21,8.19c9.22,0,14.64-4.32,14.64-10.71,0-6.84-5-9-11.7-11.79l-10-4.14c-6.46-2.61-14.16-7.29-14.16-16.92,0-10.17,9.32-17.45,22-17.45A29.3,29.3,0,0,1,582,74.32l-4.57,5.31a23.14,23.14,0,0,0-15.87-6.12c-7.89,0-13,3.69-13,9.54,0,6.48,6.17,8.91,11.59,11.07l9.89,4c8.08,3.33,14.35,7.83,14.35,17.64,0,10.44-9.12,18.72-23.67,18.72A34.13,34.13,0,0,1,536.36,124.81Z"/><g id="logo"><path class="cls-2" d="M118.84,35.6a11.78,11.78,0,1,1-11.77,11.78A11.77,11.77,0,0,1,118.84,35.6Z"/><path class="cls-3" d="M183.48,133.36a28.78,28.78,0,1,1-28.78,28.78A28.78,28.78,0,0,1,183.48,133.36Z"/><circle class="cls-4" cx="64.93" cy="141.06" r="19.41" transform="translate(-30.68 18.7) rotate(-13.29)"/><circle class="cls-5" cx="115.68" cy="109.81" r="14.99"/><circle class="cls-6" cx="182.15" cy="97.2" r="11.77"/><path class="cls-7" d="M168.83,129.45l-41.9-68.4a14.23,14.23,0,0,1-2,1l38.41,70.37A35.27,35.27,0,0,1,168.83,129.45Z"/><path class="cls-7" d="M166,98.58l-30.4,4.08a20.23,20.23,0,0,1,1.24,6.33l29.83-6.91A17.48,17.48,0,0,1,166,98.58Z"/><path class="cls-7" d="M158.9,136l-25.14-15.53a20.86,20.86,0,0,1-3,3.88l21.21,20.57A35.94,35.94,0,0,1,158.9,136Z"/><path class="cls-7" d="M110,60.68,74.45,117.31a25.4,25.4,0,0,1,6.15,3.55l30.89-59.34Q110.74,61.13,110,60.68Z"/></g></svg>